#Comment line ignore any data following # character 
#Hierarchical Translation and Rotation (.htr) file 
[Header]	
#Header keywords are followed by a single value 
FileType HTR		#Single word string
DataType HTRS		#Translation followed by rotation and scale data
FileVersion 1		#integer
NumSegments 84		#integer
NumFrames 2		#integer
DataFrameRate 30		#integer, data frame rate in this file
EulerRotationOrder ZYX
CalibrationUnits mm
RotationUnits Degrees
GlobalAxisofGravity Y
BoneLengthAxis Y
ScaleFactor 1.00
[SegmentNames&Hierarchy]
#CHILD	PARENT
MASTER GLOBAL
root MASTER
chest root
L_mid_tent01 root
R_mid_tent01 root
spine01 root
Bip01_Neck chest
L_humerus chest
R_humerus chest
weapon_bone chest
Bip01_Head Bip01_Neck
eye_left_bone Bip01_Head
eye_right_bone Bip01_Head
L_forearm L_humerus
L_front_hand L_forearm
L_weapon_bone L_forearm
L_front_hand01_01 L_front_hand
L_front_hand02_01 L_front_hand
L_front_hand03_01 L_front_hand
L_front_hand01_02 L_front_hand01_01
L_front_hand02_02 L_front_hand02_01
L_front_hand03_02 L_front_hand03_01
R_forearm R_humerus
R_front_hand R_forearm
R_weapon_bone R_forearm
R_front_hand01_01 R_front_hand
R_front_hand02_01 R_front_hand
R_front_hand03_01 R_front_hand
R_front_hand01_02 R_front_hand01_01
R_front_hand02_02 R_front_hand02_01
R_front_hand03_02 R_front_hand03_01
null_rope01_connect L_mid_tent01
Rope1_Seg01 null_rope01_connect
Rope1_Seg02 Rope1_Seg01
Rope1_Seg03 Rope1_Seg02
Rope1_Seg04 Rope1_Seg03
Rope1_Seg05 Rope1_Seg04
Rope1_Seg06 Rope1_Seg05
Rope1_Seg07 Rope1_Seg06
Rope1_Seg09 Rope1_Seg07
L_mid_hand01 Rope1_Seg09
L_mid_hand02 Rope1_Seg09
L_mid_hand03 Rope1_Seg09
null_rope02_connect R_mid_tent01
Rope2_Seg01 null_rope02_connect
Rope2_Seg02 Rope2_Seg01
Rope2_Seg03 Rope2_Seg02
Rope2_Seg04 Rope2_Seg03
Rope2_Seg05 Rope2_Seg04
Rope2_Seg06 Rope2_Seg05
Rope2_Seg07 Rope2_Seg06
Rope2_Seg09 Rope2_Seg07
R_mid_hand01 Rope2_Seg09
R_mid_hand02 Rope2_Seg09
R_mid_hand03 Rope2_Seg09
spine02 spine01
spine03 spine02
pelvis spine03
null_rope03_connect pelvis
null_rope04_connect pelvis
Rope3_Seg01 null_rope03_connect
Rope3_Seg02 Rope3_Seg01
Rope3_Seg03 Rope3_Seg02
Rope3_Seg04 Rope3_Seg03
Rope3_Seg05 Rope3_Seg04
Rope3_Seg06 Rope3_Seg05
Rope3_Seg07 Rope3_Seg06
Rope3_Seg08 Rope3_Seg07
Rope3_Seg09 Rope3_Seg08
R_rear_hand01 Rope3_Seg09
R_rear_hand02 Rope3_Seg09
R_rear_hand03 Rope3_Seg09
Rope4_Seg01 null_rope04_connect
Rope4_Seg02 Rope4_Seg01
Rope4_Seg03 Rope4_Seg02
Rope4_Seg04 Rope4_Seg03
Rope4_Seg05 Rope4_Seg04
Rope4_Seg06 Rope4_Seg05
Rope4_Seg07 Rope4_Seg06
Rope4_Seg08 Rope4_Seg07
Rope4_Seg09 Rope4_Seg08
L_rear_hand01 Rope4_Seg09
L_rear_hand02 Rope4_Seg09
L_rear_hand03 Rope4_Seg09
[BasePosition]
#SegmentName Tx, Ty, Tz, Rx, Ry, Rz, BoneLength
MASTER 0.000000 0.000000 0.000000 -90.000000 0.000000 0.000000 10.000000 
root 0.000000 0.000000 0.000000 0.000000 0.000000 0.000000 10.000000 
chest 0.000000 0.000000 0.000000 0.000000 0.000000 0.000000 10.000000 
L_mid_tent01 0.000000 0.000000 0.000000 0.000000 0.000000 0.000000 10.000000 
R_mid_tent01 0.000000 0.000000 0.000000 0.000000 0.000000 0.000000 10.000000 
spine01 0.000000 0.000000 0.000000 0.000000 0.000000 0.000000 10.000000 
Bip01_Neck 0.000000 0.000000 0.000000 0.000000 0.000000 0.000000 10.000000 
L_humerus 0.000000 0.000000 0.000000 0.000000 0.000000 0.000000 10.000000 
R_humerus 0.000000 0.000000 0.000000 0.000000 0.000000 0.000000 10.000000 
weapon_bone 0.000000 0.000000 0.000000 0.000000 0.000000 0.000000 10.000000 
Bip01_Head 0.000000 0.000000 0.000000 0.000000 0.000000 0.000000 10.000000 
eye_left_bone 0.000000 0.000000 0.000000 0.000000 0.000000 0.000000 10.000000 
eye_right_bone 0.000000 0.000000 0.000000 0.000000 0.000000 0.000000 10.000000 
L_forearm 0.000000 0.000000 0.000000 0.000000 0.000000 0.000000 10.000000 
L_front_hand 0.000000 0.000000 0.000000 0.000000 0.000000 0.000000 10.000000 
L_weapon_bone 0.000000 0.000000 0.000000 0.000000 0.000000 0.000000 10.000000 
L_front_hand01_01 0.000000 0.000000 0.000000 0.000000 0.000000 0.000000 10.000000 
L_front_hand02_01 0.000000 0.000000 0.000000 0.000000 0.000000 0.000000 10.000000 
L_front_hand03_01 0.000000 0.000000 0.000000 0.000000 0.000000 0.000000 10.000000 
L_front_hand01_02 0.000000 0.000000 0.000000 0.000000 0.000000 0.000000 10.000000 
L_front_hand02_02 0.000000 0.000000 0.000000 0.000000 0.000000 0.000000 10.000000 
L_front_hand03_02 0.000000 0.000000 0.000000 0.000000 0.000000 0.000000 10.000000 
R_forearm 0.000000 0.000000 0.000000 0.000000 0.000000 0.000000 10.000000 
R_front_hand 0.000000 0.000000 0.000000 0.000000 0.000000 0.000000 10.000000 
R_weapon_bone 0.000000 0.000000 0.000000 0.000000 0.000000 0.000000 10.000000 
R_front_hand01_01 0.000000 0.000000 0.000000 0.000000 0.000000 0.000000 10.000000 
R_front_hand02_01 0.000000 0.000000 0.000000 0.000000 0.000000 0.000000 10.000000 
R_front_hand03_01 0.000000 0.000000 0.000000 0.000000 0.000000 0.000000 10.000000 
R_front_hand01_02 0.000000 0.000000 0.000000 0.000000 0.000000 0.000000 10.000000 
R_front_hand02_02 0.000000 0.000000 0.000000 0.000000 0.000000 0.000000 10.000000 
R_front_hand03_02 0.000000 0.000000 0.000000 0.000000 0.000000 0.000000 10.000000 
null_rope01_connect 0.000000 0.000000 0.000000 0.000000 0.000000 0.000000 10.000000 
Rope1_Seg01 0.000000 0.000000 0.000000 0.000000 0.000000 0.000000 10.000000 
Rope1_Seg02 0.000000 0.000000 0.000000 0.000000 0.000000 0.000000 10.000000 
Rope1_Seg03 0.000000 0.000000 0.000000 0.000000 0.000000 0.000000 10.000000 
Rope1_Seg04 0.000000 0.000000 0.000000 0.000000 0.000000 0.000000 10.000000 
Rope1_Seg05 0.000000 0.000000 0.000000 0.000000 0.000000 0.000000 10.000000 
Rope1_Seg06 0.000000 0.000000 0.000000 0.000000 0.000000 0.000000 10.000000 
Rope1_Seg07 0.000000 0.000000 0.000000 0.000000 0.000000 0.000000 10.000000 
Rope1_Seg09 0.000000 0.000000 0.000000 0.000000 0.000000 0.000000 10.000000 
L_mid_hand01 0.000000 0.000000 0.000000 0.000000 0.000000 0.000000 10.000000 
L_mid_hand02 0.000000 0.000000 0.000000 0.000000 0.000000 0.000000 10.000000 
L_mid_hand03 0.000000 0.000000 0.000000 0.000000 0.000000 0.000000 10.000000 
null_rope02_connect 0.000000 0.000000 0.000000 0.000000 0.000000 0.000000 10.000000 
Rope2_Seg01 0.000000 0.000000 0.000000 0.000000 0.000000 0.000000 10.000000 
Rope2_Seg02 0.000000 0.000000 0.000000 0.000000 0.000000 0.000000 10.000000 
Rope2_Seg03 0.000000 0.000000 0.000000 0.000000 0.000000 0.000000 10.000000 
Rope2_Seg04 0.000000 0.000000 0.000000 0.000000 0.000000 0.000000 10.000000 
Rope2_Seg05 0.000000 0.000000 0.000000 0.000000 0.000000 0.000000 10.000000 
Rope2_Seg06 0.000000 0.000000 0.000000 0.000000 0.000000 0.000000 10.000000 
Rope2_Seg07 0.000000 0.000000 0.000000 0.000000 0.000000 0.000000 10.000000 
Rope2_Seg09 0.000000 0.000000 0.000000 0.000000 0.000000 0.000000 10.000000 
R_mid_hand01 0.000000 0.000000 0.000000 0.000000 0.000000 0.000000 10.000000 
R_mid_hand02 0.000000 0.000000 0.000000 0.000000 0.000000 0.000000 10.000000 
R_mid_hand03 0.000000 0.000000 0.000000 0.000000 0.000000 0.000000 10.000000 
spine02 0.000000 0.000000 0.000000 0.000000 0.000000 0.000000 10.000000 
spine03 0.000000 0.000000 0.000000 0.000000 0.000000 0.000000 10.000000 
pelvis 0.000000 0.000000 0.000000 0.000000 0.000000 0.000000 10.000000 
null_rope03_connect 0.000000 0.000000 0.000000 0.000000 0.000000 0.000000 10.000000 
null_rope04_connect 0.000000 0.000000 0.000000 0.000000 0.000000 0.000000 10.000000 
Rope3_Seg01 0.000000 0.000000 0.000000 0.000000 0.000000 0.000000 10.000000 
Rope3_Seg02 0.000000 0.000000 0.000000 0.000000 0.000000 0.000000 10.000000 
Rope3_Seg03 0.000000 0.000000 0.000000 0.000000 0.000000 0.000000 10.000000 
Rope3_Seg04 0.000000 0.000000 0.000000 0.000000 0.000000 0.000000 10.000000 
Rope3_Seg05 0.000000 0.000000 0.000000 0.000000 0.000000 0.000000 10.000000 
Rope3_Seg06 0.000000 0.000000 0.000000 0.000000 0.000000 0.000000 10.000000 
Rope3_Seg07 0.000000 0.000000 0.000000 0.000000 0.000000 0.000000 10.000000 
Rope3_Seg08 0.000000 0.000000 0.000000 0.000000 0.000000 0.000000 10.000000 
Rope3_Seg09 0.000000 0.000000 0.000000 0.000000 0.000000 0.000000 10.000000 
R_rear_hand01 0.000000 0.000000 0.000000 0.000000 0.000000 0.000000 10.000000 
R_rear_hand02 0.000000 0.000000 0.000000 0.000000 0.000000 0.000000 10.000000 
R_rear_hand03 0.000000 0.000000 0.000000 0.000000 0.000000 0.000000 10.000000 
Rope4_Seg01 0.000000 0.000000 0.000000 0.000000 0.000000 0.000000 10.000000 
Rope4_Seg02 0.000000 0.000000 0.000000 0.000000 0.000000 0.000000 10.000000 
Rope4_Seg03 0.000000 0.000000 0.000000 0.000000 0.000000 0.000000 10.000000 
Rope4_Seg04 0.000000 0.000000 0.000000 0.000000 0.000000 0.000000 10.000000 
Rope4_Seg05 0.000000 0.000000 0.000000 0.000000 0.000000 0.000000 10.000000 
Rope4_Seg06 0.000000 0.000000 0.000000 0.000000 0.000000 0.000000 10.000000 
Rope4_Seg07 0.000000 0.000000 0.000000 0.000000 0.000000 0.000000 10.000000 
Rope4_Seg08 0.000000 0.000000 0.000000 0.000000 0.000000 0.000000 10.000000 
Rope4_Seg09 0.000000 0.000000 0.000000 0.000000 0.000000 0.000000 10.000000 
L_rear_hand01 0.000000 0.000000 0.000000 0.000000 0.000000 0.000000 10.000000 
L_rear_hand02 0.000000 0.000000 0.000000 0.000000 0.000000 0.000000 10.000000 
L_rear_hand03 0.000000 0.000000 0.000000 0.000000 0.000000 0.000000 10.000000 
#Beginning of Data. Separated by tabs
#Fr	Tx	Ty	Tz	Rx	Ry	Rz	SF
[MASTER]
37 -304.632538 -694.628601 -0.000000 0.001660 0.001660 0.001660 758.491821
38 -314.259521 -803.863098 -0.002768 0.001660 0.001660 0.001660 863.107727
[root]
37 -16.502285 -62.822109 1478.647461 -51.601868 -30.290606 -112.508575 1480.073364
38 -16.502285 -62.822109 1463.895874 -53.809994 -32.969326 -110.977829 1465.336182
[chest]
37 -84.512650 -34.090519 0.000000 6.296585 -0.429175 -178.801788 91.129311
38 -84.512650 -34.090519 0.000000 5.958950 -0.561049 -177.722870 91.129311
[L_mid_tent01]
37 27.299461 22.177580 -249.918274 79.829720 43.021465 166.881317 252.381165
38 27.299461 22.177582 -249.918274 76.905960 44.956738 163.067825 252.381165
[R_mid_tent01]
37 23.228794 24.509907 226.238495 163.837357 -27.326145 78.892197 228.744751
38 23.228794 24.509907 226.238495 164.221008 -27.536182 78.052948 228.744751
[spine01]
37 -0.361383 -0.195265 0.000000 0.001845 0.001451 13.654368 0.410763
38 -0.361383 -0.195265 0.000000 0.001845 0.001451 13.654368 0.410763
[Bip01_Neck]
37 165.484543 71.581718 0.000119 176.643677 -1.657967 43.431911 180.302734
38 165.484543 71.581718 0.000119 176.643677 -1.657967 43.431911 180.302734
[L_humerus]
37 -13.983130 -135.272980 -120.471481 -168.082352 24.139317 -74.290726 181.680161
38 -13.983130 -135.272980 -120.471481 -169.073944 21.830093 -75.514404 181.680161
[R_humerus]
37 -13.983309 -135.273102 125.287651 163.814987 -9.759193 -65.973740 184.909012
38 -13.983309 -135.273102 125.287651 166.122025 -8.141597 -69.276207 184.909012
[weapon_bone]
37 235.964890 -300.705902 0.000000 0.000000 -89.951546 -128.212341 382.234833
38 235.964890 -300.705902 0.000000 0.000000 -89.951546 -128.212341 382.234833
[Bip01_Head]
37 213.444397 185.715530 11.776988 -6.018535 -6.903328 29.694029 283.173920
38 213.444397 185.715530 11.776988 -6.966095 -7.268632 27.137802 283.173920
[eye_left_bone]
37 -24.626970 125.451866 -64.772606 0.000000 -90.000000 -99.840431 143.318359
38 -24.626970 125.451866 -64.772606 0.000000 -90.000000 -99.840431 143.318359
[eye_right_bone]
37 -24.626970 125.451866 64.327362 0.000000 -89.965736 80.156380 143.117676
38 -24.626970 125.451866 64.327362 0.000000 -89.965736 80.156380 143.117676
[L_forearm]
37 322.776093 0.000000 -0.000119 0.000237 -0.002335 -101.574890 322.776093
38 322.776093 0.000000 -0.000119 0.000228 -0.002336 -101.158112 322.776093
[L_front_hand]
37 241.149185 -0.042021 -3.300071 149.893951 -1.837327 -27.423069 241.171753
38 241.149185 -0.042021 -3.300071 149.893951 -1.837326 -27.423067 241.171753
[L_weapon_bone]
37 156.183838 0.000000 0.000000 0.000014 0.000007 0.000001 156.183838
38 156.183838 0.000000 0.000000 0.000014 0.000007 0.000001 156.183838
[L_front_hand01_01]
37 86.095154 20.947098 -0.655860 0.328012 -0.501522 4.596167 88.609184
38 86.095154 20.947098 -0.655860 0.266862 -0.536501 11.255379 88.609184
[L_front_hand02_01]
37 86.935165 -11.437475 24.513514 116.996826 -4.588315 -2.683279 91.046425
38 86.935165 -11.437475 24.513514 117.401131 -10.507628 -5.750164 91.046425
[L_front_hand03_01]
37 86.637497 -14.123976 -20.424902 -118.373535 3.451407 -4.532577 90.126129
38 86.637497 -14.123976 -20.424902 -118.731956 9.297997 -7.733113 90.126129
[L_front_hand01_02]
37 71.020905 -0.000179 0.000030 0.000966 0.002139 -41.403633 71.020905
38 71.020905 -0.000179 0.000030 0.000725 0.002233 -54.037292 71.020905
[L_front_hand02_02]
37 71.020927 -0.000119 0.000060 0.000966 0.002139 -41.403633 71.020927
38 71.020927 -0.000119 0.000060 0.000725 0.002233 -54.037292 71.020927
[L_front_hand03_02]
37 71.020905 -0.000060 0.000060 0.000966 0.002139 -41.403633 71.020905
38 71.020905 -0.000060 0.000060 0.000725 0.002233 -54.037292 71.020905
[R_forearm]
37 322.776428 -0.000060 0.000030 0.153438 -0.146513 -47.878887 322.776428
38 322.776428 -0.000060 0.000030 0.151570 -0.148445 -46.427319 322.776428
[R_front_hand]
37 238.847015 -0.006795 2.210259 -8.879457 -10.642941 -26.315098 238.857239
38 238.847015 -0.006795 2.210259 -8.879457 -10.642941 -26.315098 238.857239
[R_weapon_bone]
37 155.664093 0.002503 -0.000030 0.003487 0.001180 -90.988930 155.664078
38 155.664093 0.002503 -0.000030 0.003487 0.001180 -90.988930 155.664078
[R_front_hand01_01]
37 87.624611 14.231146 22.918642 -117.121597 -6.969814 4.014859 91.683487
38 87.624611 14.231146 22.918642 -117.768196 -13.765118 7.597076 91.683487
[R_front_hand02_01]
37 89.356956 14.367283 -19.491137 118.508331 6.078548 6.199207 92.579636
38 89.356956 14.367283 -19.491137 119.121613 12.788363 9.940639 92.579636
[R_front_hand03_01]
37 87.286232 -22.307278 -0.143439 -0.334994 -0.307791 -7.510545 90.091743
38 87.286232 -22.307278 -0.143439 -0.290823 -0.351372 -15.165852 90.091743
[R_front_hand01_02]
37 71.020905 0.000060 0.000119 0.002212 0.000785 50.925697 71.020905
38 71.020905 0.000060 0.000119 0.002301 0.000464 67.213478 71.020905
[R_front_hand02_02]
37 71.020844 -0.000030 -0.000119 0.002212 0.000785 50.925697 71.020836
38 71.020844 -0.000030 -0.000119 0.002301 0.000464 67.213478 71.020836
[R_front_hand03_02]
37 71.020905 0.000000 0.000030 0.002212 0.000785 50.925697 71.020905
38 71.020905 0.000000 0.000030 0.002301 0.000464 67.213478 71.020905
[null_rope01_connect]
37 328.732483 0.000000 -0.000238 -128.667282 -29.365822 108.071381 328.732483
38 328.732483 0.000000 -0.000238 -125.853737 -29.052822 112.119682 328.732483
[Rope1_Seg01]
37 -0.000029 0.000019 0.000076 -107.813004 36.119537 -114.493057 0.000084
38 -0.000028 0.000019 0.000074 -142.318497 35.911995 -122.397118 0.000082
[Rope1_Seg02]
37 139.999863 -0.000179 0.000000 -5.680163 -5.505689 9.510838 139.999863
38 139.999863 -0.000179 0.000000 7.052475 -9.702252 6.303786 139.999863
[Rope1_Seg03]
37 139.999924 0.000060 -0.000060 -2.827249 -10.130294 13.467829 139.999924
38 139.999924 0.000060 -0.000060 3.086457 -14.458235 11.275070 139.999924
[Rope1_Seg04]
37 139.999924 -0.000060 -0.000119 0.544996 -13.959565 12.010373 139.999924
38 139.999924 -0.000060 -0.000119 1.506852 -16.779432 12.283348 139.999924
[Rope1_Seg05]
37 139.999832 0.000119 -0.000060 -5.760555 -9.185342 28.007826 139.999832
38 139.999832 0.000119 -0.000060 -6.113470 -13.041928 32.642685 139.999832
[Rope1_Seg06]
37 139.999954 0.000119 -0.000060 0.851626 -7.574060 32.190811 139.999954
38 139.999954 0.000119 -0.000060 1.322272 -9.806782 27.124126 139.999954
[Rope1_Seg07]
37 139.999985 0.000060 0.000000 3.142793 -3.276901 12.090771 139.999985
38 139.999985 0.000060 0.000000 2.618521 -3.745656 9.877252 139.999985
[Rope1_Seg09]
37 121.602913 0.000119 -0.000089 -89.793175 -1.359789 0.847147 121.602913
38 121.602913 0.000119 -0.000089 -89.793175 -1.359789 0.847147 121.602913
[L_mid_hand01]
37 103.859421 1.038730 8.195221 130.544373 -67.584534 -38.866943 104.187431
38 103.859421 1.038730 8.195221 130.544373 -67.584534 -38.866943 104.187431
[L_mid_hand02]
37 105.572853 -4.139662 -10.864139 -168.923172 43.409309 -73.498886 106.211075
38 105.572853 -4.139662 -10.864139 -168.923172 43.409309 -73.498886 106.211075
[L_mid_hand03]
37 104.641464 17.579376 -3.913581 -6.012627 17.808174 74.893669 106.179977
38 104.641464 17.579376 -3.913581 -6.012627 17.808174 74.893669 106.179977
[null_rope02_connect]
37 328.732849 0.000179 -0.000119 -136.562576 42.716923 -17.901518 328.732849
38 328.732849 0.000179 -0.000119 -132.671616 44.377583 -15.625006 328.732849
[Rope2_Seg01]
37 0.000057 0.000076 0.000000 -5.813826 -16.812561 -22.337780 0.000095
38 0.000058 0.000074 0.000000 -5.340931 -17.914642 -22.216274 0.000094
[Rope2_Seg02]
37 139.999741 -0.000060 -0.000119 -15.324352 4.771042 14.113958 139.999756
38 139.999741 -0.000060 -0.000119 -16.450037 8.345314 13.008276 139.999756
[Rope2_Seg03]
37 140.000107 0.000030 0.000000 -20.216398 4.454255 27.496052 140.000107
38 140.000107 0.000030 0.000000 -26.228010 11.126141 29.050655 140.000107
[Rope2_Seg04]
37 139.999802 0.000000 -0.000060 -13.115461 -1.357154 32.757538 139.999802
38 139.999802 0.000000 -0.000060 -17.560619 1.538980 36.109512 139.999802
[Rope2_Seg05]
37 139.999985 -0.000060 0.000119 1.772919 -23.395714 -3.477351 139.999985
38 139.999985 -0.000060 0.000119 3.733409 -21.224508 -5.980968 139.999985
[Rope2_Seg06]
37 139.999893 -0.000030 -0.000119 -2.341842 -22.358526 -11.928535 139.999893
38 139.999893 -0.000030 -0.000119 1.284707 -23.682400 -17.468727 139.999893
[Rope2_Seg07]
37 139.999893 0.000060 -0.000060 -2.410151 -8.056861 -2.655531 139.999893
38 139.999893 0.000060 -0.000060 -1.804561 -8.607293 -4.025135 139.999893
[Rope2_Seg09]
37 121.338966 0.000089 -0.000060 33.793236 -1.359788 -0.847141 121.338966
38 121.338966 0.000089 -0.000060 33.793236 -1.359788 -0.847141 121.338966
[R_mid_hand01]
37 104.680779 11.144459 -10.335981 -16.212063 45.237247 70.462852 105.778534
38 104.680779 11.144459 -10.335981 -16.212065 45.237240 70.462845 105.778534
[R_mid_hand02]
37 104.070427 2.443552 8.231699 49.067368 -67.749771 39.286453 104.424065
38 104.070427 2.443552 8.231699 49.067383 -67.749779 39.286449 104.424065
[R_mid_hand03]
37 106.028137 -11.221827 -5.996406 -177.101105 15.551026 -76.585571 106.788818
38 106.028137 -11.221827 -5.996406 -177.101105 15.551026 -76.585571 106.788818
[spine02]
37 129.756927 0.001550 0.000119 -1.023899 -3.926965 6.770993 129.756927
38 129.756927 0.001550 0.000119 -1.023899 -3.926965 6.770993 129.756927
[spine03]
37 78.613846 0.087372 -4.898873 1.040681 4.146420 4.212376 78.766380
38 78.613846 0.087372 -4.898873 1.040681 4.146420 4.212376 78.766380
[pelvis]
37 169.435242 0.051022 0.000000 0.019518 -0.190233 -10.721436 169.435257
38 169.435242 0.051022 0.000000 0.019518 -0.190233 -10.721436 169.435257
[null_rope03_connect]
37 -1.257226 -2.466202 137.391083 -1.467331 -57.803188 114.490524 137.418976
38 -1.257226 -2.466202 137.391083 0.930818 -60.544914 113.783623 137.418976
[null_rope04_connect]
37 -1.259640 -2.480268 -137.844437 -1.467331 -57.803188 114.490524 137.872513
38 -1.259640 -2.480268 -137.844437 0.930818 -60.544914 113.783623 137.872513
[Rope3_Seg01]
37 -0.000024 0.000114 -0.000076 -123.217926 -44.809433 -95.122162 0.000140
38 -0.000024 0.000120 -0.000078 -126.597664 -47.025421 -90.451424 0.000145
[Rope3_Seg02]
37 139.999924 -0.000119 0.000060 -10.037643 12.628678 -36.149174 139.999924
38 139.999924 -0.000119 0.000060 -12.726496 11.393372 -37.740685 139.999924
[Rope3_Seg03]
37 139.999924 -0.000119 0.000119 -8.985618 2.637635 -21.744238 139.999924
38 139.999924 -0.000119 0.000119 -11.958210 4.130477 -21.685537 139.999924
[Rope3_Seg04]
37 139.999924 0.000119 0.000000 -12.947978 14.895591 -8.372394 139.999924
38 139.999924 0.000119 0.000000 -16.831362 16.550596 -10.055788 139.999924
[Rope3_Seg05]
37 139.999924 -0.000238 0.000060 -9.457230 26.707895 0.607894 139.999924
38 139.999924 -0.000238 0.000060 -11.584407 25.766521 -0.841511 139.999924
[Rope3_Seg06]
37 139.999893 -0.000119 -0.000060 -1.394715 14.018865 2.222325 139.999893
38 139.999893 -0.000119 -0.000060 -2.176331 12.160032 1.595562 139.999893
[Rope3_Seg07]
37 139.999771 0.000060 -0.000119 0.182460 6.973177 0.934392 139.999771
38 139.999771 0.000060 -0.000119 -0.325020 6.209105 0.826050 139.999771
[Rope3_Seg08]
37 139.999985 -0.000060 0.000000 0.528866 3.897316 0.514515 139.999985
38 139.999985 -0.000060 0.000000 0.214466 3.492973 0.488157 139.999985
[Rope3_Seg09]
37 90.185997 -0.000179 -0.000060 89.793228 -1.359877 -0.847183 90.185997
38 90.185997 -0.000179 -0.000060 89.793228 -1.359877 -0.847183 90.185997
[R_rear_hand01]
37 103.366196 -6.073594 -10.757982 -177.714203 24.565960 -73.910950 104.101845
38 103.366196 -6.073594 -10.757982 -177.714203 24.565958 -73.910942 104.101845
[R_rear_hand02]
37 100.509819 12.039542 -7.992327 -12.874829 36.868488 72.167213 101.543350
38 100.509819 12.039542 -7.992327 -12.874829 36.868488 72.167213 101.543350
[R_rear_hand03]
37 101.539970 5.215704 5.435467 71.484581 -71.816628 21.513813 101.819031
38 101.539970 5.215704 5.435467 71.484581 -71.816628 21.513813 101.819031
[Rope4_Seg01]
37 0.000000 0.000000 0.000000 -42.395912 26.778170 156.723083 0.000000
38 0.000000 0.000000 0.000000 -33.587818 20.930336 163.680389 0.000000
[Rope4_Seg02]
37 139.999985 0.000060 0.000119 7.280589 -6.565215 4.027226 139.999985
38 139.999985 0.000060 0.000119 2.816644 2.569187 3.900528 139.999985
[Rope4_Seg03]
37 139.999924 0.000000 -0.000238 27.111694 -14.867794 23.009684 139.999924
38 139.999924 0.000000 -0.000238 14.944331 -0.162959 18.971746 139.999924
[Rope4_Seg04]
37 139.999985 0.000000 0.000119 -42.413147 -4.808179 -35.630268 139.999985
38 139.999985 0.000000 0.000119 -26.592327 0.885883 -30.018532 139.999985
[Rope4_Seg05]
37 139.999802 -0.000060 -0.000119 -21.466801 10.836206 -13.665420 139.999802
38 139.999802 -0.000060 -0.000119 -15.626613 6.313999 -14.204237 139.999802
[Rope4_Seg06]
37 139.999924 0.000000 0.000060 -3.525654 3.340791 -2.150660 139.999924
38 139.999924 0.000000 0.000060 -3.317959 2.517048 -2.872632 139.999924
[Rope4_Seg07]
37 139.999802 0.000000 0.000000 -1.834970 2.075522 -1.164500 139.999802
38 139.999802 0.000000 0.000000 -1.842405 1.632261 -1.657090 139.999802
[Rope4_Seg08]
37 139.999924 0.000000 0.000119 -2.527883 1.229272 -0.638917 139.999924
38 139.999924 0.000000 0.000119 -2.568682 0.984845 -0.940591 139.999924
[Rope4_Seg09]
37 90.185791 0.000060 0.000060 -135.617828 2.228885 0.850567 90.185791
38 90.185791 0.000060 0.000060 -135.617828 2.228885 0.850567 90.185791
[L_rear_hand01]
37 101.696655 -8.392275 -7.654577 -12.874831 -36.868492 107.832764 102.329041
38 101.696655 -8.392275 -7.654577 -12.874833 -36.868488 107.832779 102.329041
[L_rear_hand02]
37 102.726799 -1.568258 5.773216 71.484581 71.816628 158.486160 102.900848
38 102.726799 -1.568258 5.773216 71.484589 71.816643 158.486160 102.900848
[L_rear_hand03]
37 104.552910 9.721220 -10.420293 -177.714203 -24.565960 -106.089035 105.519653
38 104.552910 9.721220 -10.420293 -177.714203 -24.565960 -106.089035 105.519653
